<svg width="100" height="74" viewBox="0 0 100 74" fill="none" xmlns="http://www.w3.org/2000/svg">
<g clip-path="url(#clip0_149_113)">
<path d="M77.6728 67.6551C89.544 67.6551 98.8206 59.0521 98.8206 48.3473C98.8206 40.1728 94.0646 33.0879 86.3993 29.8959C86.4778 12.5345 73.86 0 57.7831 0C47.1306 0 39.5442 5.64441 34.827 12.4566C25.1572 9.65389 14.6227 16.9332 14.4261 27.8328C5.54244 29.2341 0 37.0975 0 46.5954C0 58.0402 10.1022 67.6551 23.5456 67.6551H77.6728ZM77.6728 61.3879H23.5456C13.6399 61.3879 6.32862 54.5368 6.32862 46.5954C6.32862 38.8102 11.0849 32.6208 19.4182 32.6208C19.9685 32.6208 20.1651 32.3483 20.1651 31.8423C20.1651 19.8527 28.8915 16.3104 36.9496 18.9185C37.4212 19.0742 37.6966 18.9574 37.9324 18.5292C41.7452 11.7949 47.6022 6.26724 57.7831 6.26724C70.6761 6.26724 79.5992 16.3882 80.2673 27.9495C80.3851 29.7402 80.2673 31.8423 80.11 33.6718C80.0708 34.178 80.2673 34.4504 80.7389 34.567C87.893 36.1242 92.4921 41.3015 92.4921 48.3473C92.4921 55.5878 86.0454 61.3879 77.6728 61.3879Z" fill="black" fill-opacity="0.85"/>
<path d="M33.6476 51.6561C37.9717 55.899 44.0252 55.899 48.3884 51.6561L56.3287 43.7928C60.6524 39.5496 60.6132 33.5159 56.3287 29.2341C54.9528 27.8328 53.4199 27.0931 52.2405 26.7428L50.1964 28.7281C49.8036 29.1563 49.2924 29.7013 48.742 30.4798C50.393 30.2073 52.0047 30.8301 53.341 32.1926C56.0141 34.8008 56.0533 38.4597 53.3018 41.1457L45.7154 48.6977C43.0423 51.3445 39.2688 51.3445 36.6353 48.7366C33.9623 46.0506 33.9623 42.3525 36.6353 39.7054L39.9765 36.3966C39.4653 34.6061 39.5442 32.5818 40.3696 30.4408L33.6476 37.0583C29.3632 41.3015 29.3632 47.374 33.6476 51.6561ZM67.2171 18.4514C62.9323 14.1694 56.8003 14.1694 52.4763 18.4124L44.536 26.2757C40.2516 30.5187 40.2908 36.5912 44.5756 40.8733C45.9512 42.2748 47.5629 43.0142 48.6242 43.3646L50.7076 41.3404C51.3758 40.5617 51.4938 40.3671 51.8474 39.7834C50.3537 39.8223 48.7816 39.1606 47.5237 37.915C44.8507 35.2678 44.8114 31.6476 47.5629 28.9616L55.1494 21.4098C57.8616 18.7238 61.596 18.7238 64.2294 21.3709C66.8632 24.0568 66.9025 27.7549 64.2294 30.4019L60.8882 33.6329C61.3994 35.5014 61.3206 37.5256 60.4954 39.6665L67.2171 33.01C71.5016 28.7281 71.4623 22.6944 67.2171 18.4514Z" fill="black" fill-opacity="0.85"/>
</g>
<defs>
<clipPath id="clip0_149_113">
<rect width="100" height="74" fill="white"/>
</clipPath>
</defs>
</svg>
