<svg width="134" height="75" viewBox="0 0 134 75" fill="none" xmlns="http://www.w3.org/2000/svg">
<g clip-path="url(#clip0_152_118)">
<path d="M0 69.7515C0 72.6521 2.34523 75 5.1963 75H127.424C130.275 75 132.621 72.6521 132.621 69.7515C132.621 66.8508 130.275 64.503 127.424 64.503H117.353V9.85264C117.353 3.40697 113.905 0.092041 107.513 0.092041H25.1078C19.0378 0.092041 15.267 3.40697 15.267 9.85264V64.503H5.1963C2.34523 64.503 0 66.8508 0 69.7515ZM22.6706 64.503V11.9245C22.6706 8.9779 24.1421 7.5046 27.0851 7.5046H105.535C108.478 7.5046 109.95 8.9779 109.95 11.9245V64.503H22.6706Z" fill="black" fill-opacity="0.85"/>
<path d="M58.5389 52.0719H74.1276C76.657 52.0719 77.8986 50.7828 77.8986 48.1584V36.1879C77.8986 34.116 77.1165 32.919 75.5991 32.4125V29.2818C75.5991 23.0663 71.8744 18.8306 66.3564 18.8306C60.838 18.8306 57.1133 23.0663 57.1133 29.2818V32.4586C55.5959 32.919 54.8142 34.116 54.8142 36.1879V48.1584C54.8142 50.7828 56.0558 52.0719 58.5389 52.0719ZM61.6656 32.2284V28.8674C61.6656 25.4604 63.4593 23.2505 66.3564 23.2505C69.1613 23.2505 71.0468 25.4604 71.0468 28.8674V32.2284H61.6656Z" fill="black" fill-opacity="0.85"/>
</g>
<defs>
<clipPath id="clip0_152_118">
<rect width="134" height="75" fill="white"/>
</clipPath>
</defs>
</svg>
