<svg width="18" height="14" viewBox="0 0 18 14" fill="none" xmlns="http://www.w3.org/2000/svg">
<g clip-path="url(#clip0_284_169)">
<path d="M17.7738 2.35741V11.6502C17.7738 13.2168 16.99 14 15.407 14H2.36683C0.791457 14 0 13.2168 0 11.6502V2.35741C0 0.790875 0.791457 0 2.36683 0H15.407C16.99 0 17.7738 0.790875 17.7738 2.35741ZM10.6809 7.1939L7.07788 10.4183L5.63818 9.1103C5.30653 8.79849 4.9221 8.64638 4.55276 8.64638C4.2211 8.64638 3.85929 8.79849 3.52764 9.09505L1.21357 11.1331V11.597C1.21357 12.3422 1.65075 12.7833 2.3819 12.7833H15.3995C16.1156 12.7833 16.5603 12.3422 16.5603 11.6122V10.441L13.093 7.20156C12.7387 6.86691 12.309 6.70721 11.8945 6.70721C11.4648 6.70721 11.0502 6.85931 10.6809 7.1939ZM3.79145 5.3156C3.79145 6.34982 4.62813 7.1939 5.65326 7.1939C6.67085 7.1939 7.50755 6.34982 7.50755 5.3156C7.50755 4.28898 6.67085 3.43727 5.65326 3.43727C4.62813 3.43727 3.79145 4.28898 3.79145 5.3156Z" fill="black"/>
</g>
<defs>
<clipPath id="clip0_284_169">
<rect width="18" height="14" fill="white"/>
</clipPath>
</defs>
</svg>
